<?xml version="1.0" encoding="utf-8"?>
<!-- Generator: Adobe Illustrator 21.0.1, SVG Export Plug-In . SVG Version: 6.00 Build 0)  -->
<svg version="1.1" id="Layer_1" xmlns="http://www.w3.org/2000/svg" xmlns:xlink="http://www.w3.org/1999/xlink" x="0px" y="0px"
	 viewBox="0 0 305 80" style="enable-background:new 0 0 305 80;" xml:space="preserve">
<style type="text/css">
	.st0{fill:#FFFFFF;}
	.st1{fill:#8FC73E;}
</style>
<g>
	<path class="st0" d="M109.3,51.1c-0.8,0.4-1.8,0.7-2.9,1c-1.1,0.3-2.2,0.5-3.2,0.5c-0.8,0-1.5-0.1-2.1-0.3
		c-0.7-0.2-1.3-0.5-1.8-0.9c-0.5-0.4-0.9-1-1.2-1.7c-0.3-0.7-0.4-1.5-0.4-2.5V36.8h-2.5v-4.6h2.5v-6.4h6.1v6.4h4.1v4.6h-4.1v8.4
		c0,0.7,0.2,1.1,0.5,1.4c0.3,0.3,0.7,0.4,1.3,0.4c0.5,0,0.9-0.1,1.4-0.2c0.5-0.2,0.9-0.3,1.3-0.5L109.3,51.1z"/>
	<path class="st0" d="M124.4,37.4c-1.5,0-2.8,0.3-4,0.7c-1.2,0.5-2.1,1.1-2.6,2.1v12h-6.1V32.1h5.6v4.1c0.7-1.4,1.6-2.4,2.6-3.2
		c1.1-0.8,2.2-1.2,3.4-1.2c0.3,0,0.5,0,0.6,0c0.1,0,0.3,0,0.4,0V37.4z"/>
	<path class="st0" d="M126.9,29.9v-5.5h6.1v5.5H126.9z M126.9,52.2V32.1h6.1v20.1H126.9z"/>
	<path class="st0" d="M156.4,52.2h-6.1V40.9c0-1.3-0.2-2.3-0.7-2.9c-0.5-0.6-1.1-0.9-2-0.9c-0.4,0-0.9,0.1-1.3,0.3
		c-0.4,0.2-0.8,0.4-1.3,0.7c-0.4,0.3-0.8,0.7-1.1,1.1c-0.3,0.4-0.6,0.9-0.7,1.4v11.5h-6.1V32.1h5.5v3.4c0.7-1.2,1.8-2.1,3.1-2.8
		c1.3-0.7,2.9-1,4.6-1c1.3,0,2.3,0.2,3.1,0.7c0.8,0.5,1.4,1.1,1.8,1.8c0.4,0.8,0.7,1.6,0.9,2.5c0.1,0.9,0.2,1.8,0.2,2.6V52.2z"/>
	<path class="st0" d="M160.4,29.9v-5.5h6.1v5.5H160.4z M160.4,52.2V32.1h6.1v20.1H160.4z"/>
	<path class="st0" d="M183.6,51.1c-0.8,0.4-1.8,0.7-2.9,1c-1.1,0.3-2.2,0.5-3.3,0.5c-0.8,0-1.5-0.1-2.1-0.3
		c-0.7-0.2-1.3-0.5-1.8-0.9c-0.5-0.4-0.9-1-1.2-1.7c-0.3-0.7-0.4-1.5-0.4-2.5V36.8h-2.5v-4.6h2.5v-6.4h6.1v6.4h4.1v4.6H178v8.4
		c0,0.7,0.2,1.1,0.5,1.4c0.3,0.3,0.7,0.4,1.3,0.4c0.5,0,0.9-0.1,1.4-0.2c0.5-0.2,0.9-0.3,1.3-0.5L183.6,51.1z"/>
	<path class="st0" d="M186.1,55.2c0.5,0.2,1,0.3,1.4,0.4c0.4,0.1,0.8,0.1,1.2,0.1c0.7,0,1.3-0.3,1.7-0.8c0.4-0.5,0.8-1.4,1.1-2.8
		L184,32.1h6.3l4.6,14.8l4-14.8h5.7L197,55.5c-0.5,1.7-1.5,3-2.9,4c-1.4,1-3,1.5-4.9,1.5c-0.5,0-1,0-1.5-0.1c-0.5-0.1-1-0.2-1.6-0.4
		V55.2z"/>
	<path class="st1" d="M219.9,51.1c-0.8,0.4-1.8,0.7-2.9,1c-1.1,0.3-2.2,0.5-3.3,0.5c-0.8,0-1.5-0.1-2.1-0.3
		c-0.7-0.2-1.3-0.5-1.8-0.9c-0.5-0.4-0.9-1-1.2-1.7c-0.3-0.7-0.4-1.5-0.4-2.5V36.8h-2.5v-4.6h2.5v-6.4h6.1v6.4h4.1v4.6h-4.1v8.4
		c0,0.7,0.2,1.1,0.5,1.4c0.3,0.3,0.7,0.4,1.3,0.4c0.5,0,0.9-0.1,1.4-0.2c0.5-0.2,0.9-0.3,1.3-0.5L219.9,51.1z"/>
	<path class="st1" d="M234.9,37.4c-1.5,0-2.8,0.3-4,0.7c-1.2,0.5-2.1,1.1-2.6,2.1v12h-6.1V32.1h5.6v4.1c0.7-1.4,1.6-2.4,2.6-3.2
		c1.1-0.8,2.2-1.2,3.4-1.2c0.3,0,0.5,0,0.6,0c0.1,0,0.3,0,0.4,0V37.4z"/>
	<path class="st1" d="M242.8,52.6c-1,0-1.9-0.2-2.8-0.5c-0.8-0.3-1.6-0.8-2.2-1.3c-0.6-0.6-1.1-1.2-1.4-2c-0.4-0.8-0.5-1.6-0.5-2.5
		c0-1,0.2-1.9,0.6-2.7c0.4-0.8,1-1.5,1.8-2.1c0.8-0.6,1.7-1,2.7-1.4c1-0.3,2.2-0.5,3.5-0.5c0.8,0,1.6,0.1,2.4,0.2
		c0.8,0.1,1.5,0.4,2.1,0.6v-0.9c0-2.3-1.3-3.5-4-3.5c-1.1,0-2.1,0.2-3.1,0.6c-1,0.4-2,0.9-3.1,1.7l-1.8-3.8c1.3-0.9,2.7-1.5,4.1-2
		c1.4-0.4,2.9-0.7,4.5-0.7c3,0,5.3,0.7,7,2.1c1.6,1.4,2.5,3.5,2.5,6.3v5.2c0,0.6,0.1,1,0.3,1.3s0.5,0.4,1,0.4v5.2
		c-0.5,0.1-1,0.2-1.4,0.2c-0.4,0-0.8,0.1-1.2,0.1c-1.1,0-2-0.2-2.6-0.7c-0.6-0.4-0.9-1.1-1.1-1.9l-0.1-0.9c-0.9,1.1-1.9,2-3.2,2.6
		C245.5,52.3,244.2,52.6,242.8,52.6z M244.6,48.2c0.7,0,1.3-0.1,1.9-0.3c0.6-0.2,1.1-0.5,1.5-0.9c0.6-0.5,0.9-0.9,0.9-1.5v-1.9
		c-0.5-0.2-1.1-0.4-1.7-0.5c-0.6-0.1-1.2-0.2-1.7-0.2c-1.1,0-2,0.3-2.8,0.8c-0.7,0.5-1.1,1.2-1.1,2c0,0.7,0.3,1.3,0.8,1.8
		C243.1,48,243.8,48.2,244.6,48.2z"/>
	<path class="st1" d="M267.7,52.6c-1.4,0-2.6-0.3-3.8-0.8c-1.2-0.5-2.1-1.3-3-2.2c-0.8-0.9-1.5-2-2-3.3c-0.5-1.3-0.7-2.6-0.7-4.1
		c0-1.5,0.2-2.8,0.6-4.1c0.4-1.3,1-2.4,1.8-3.3c0.8-0.9,1.7-1.7,2.8-2.2c1.1-0.5,2.3-0.8,3.6-0.8c1.4,0,2.7,0.3,3.8,1
		c1.1,0.7,2,1.6,2.6,2.7V24.3h6.1v21c0,0.6,0.1,1,0.3,1.3s0.5,0.4,1,0.4v5.2c-0.6,0.1-1,0.2-1.4,0.2c-0.4,0-0.8,0.1-1.1,0.1
		c-1.1,0-1.9-0.2-2.6-0.7c-0.7-0.4-1-1.1-1.1-1.9l-0.1-1c-0.7,1.2-1.7,2.2-2.9,2.8C270.4,52.3,269.1,52.6,267.7,52.6z M269.4,47.4
		c0.8,0,1.6-0.2,2.4-0.7c0.8-0.5,1.4-1.2,1.8-2v-4.2c-0.4-1-1-1.9-1.8-2.5c-0.8-0.7-1.7-1-2.6-1c-0.7,0-1.3,0.1-1.8,0.4
		c-0.5,0.3-1,0.7-1.4,1.2c-0.4,0.5-0.7,1-0.9,1.7c-0.2,0.6-0.3,1.3-0.3,2c0,0.7,0.1,1.4,0.4,2.1c0.2,0.6,0.6,1.2,1,1.6
		c0.4,0.5,0.9,0.8,1.5,1.1C268.1,47.3,268.7,47.4,269.4,47.4z"/>
	<path class="st1" d="M293.9,52.6c-1.7,0-3.2-0.3-4.5-0.8c-1.3-0.5-2.5-1.3-3.4-2.2c-0.9-0.9-1.6-2-2.1-3.3
		c-0.5-1.2-0.7-2.5-0.7-3.9c0-1.5,0.2-2.8,0.7-4.1c0.5-1.3,1.2-2.4,2.1-3.4c0.9-1,2-1.7,3.4-2.3c1.3-0.6,2.8-0.8,4.5-0.8
		s3.2,0.3,4.5,0.8c1.3,0.6,2.4,1.3,3.3,2.3c0.9,1,1.6,2.1,2.1,3.3c0.5,1.2,0.7,2.6,0.7,3.9c0,0.4,0,0.7,0,1.1c0,0.3-0.1,0.6-0.1,0.9
		h-14.7c0.1,1.4,0.6,2.4,1.5,3.1c0.9,0.7,1.9,1.1,3,1.1c0.9,0,1.7-0.2,2.6-0.6c0.8-0.4,1.4-1,1.7-1.8l5.2,1.5
		c-0.8,1.6-2,2.9-3.6,3.9C298.1,52.1,296.2,52.6,293.9,52.6z M298.1,40.3c-0.1-1.3-0.6-2.3-1.4-3c-0.8-0.7-1.8-1.1-2.9-1.1
		c-1.2,0-2.2,0.4-2.9,1.1c-0.8,0.8-1.2,1.8-1.3,3H298.1z"/>
</g>
<g>
	<path class="st1" d="M31.8,38.8l0.2-0.1c7.5-2.3,15.6-2.3,23,0l0.2,0.1l0-0.2c0-0.6,0-1.2,0-1.8c0-9.9-4.2-19.3-11.5-25.9l-0.1-0.1
		l-0.1,0.1C36,17.5,31.7,26.9,31.7,36.8c0,0.5,0,1.1,0,1.8L31.8,38.8z M35.7,33.8c0.7-6.5,3.4-12.7,7.9-17.6
		c4.3,4.9,7.1,11.1,7.7,17.6c-2.6-0.5-5.2-0.7-7.8-0.7C40.9,33.1,38.3,33.3,35.7,33.8z"/>
	<path class="st1" d="M86.3,72.4c-0.1-1.6-0.4-3.2-0.7-4.9L85.5,67c0-0.1-0.1-0.6-0.3-1.3C85.1,65.4,85,65.1,85,65l-0.8-2.6
		c-3.5-10.3-10.9-19.1-20.5-24.3c0-0.5,0-0.9,0-1.4c0-10.6-3.7-20.4-10.6-28.4l-3-3.1L50,5.1c-0.3-0.3-0.6-0.6-0.9-0.8
		C48.8,4,48.4,3.7,48,3.4l-2.4-1.9L43.5,0l-2.1,1.5C30.1,9.6,23.3,22.8,23.3,36.8c0,0.5,0,0.9,0,1.4C11.9,44.3,4,55,1.4,67.7
		c-0.1,0.4-0.1,0.7-0.2,1.1C1,70,0.8,71.1,0.7,72.4L0.5,75l2.4,1.1C8.5,78.7,14.6,80,20.8,80c8.1,0,15.9-2.3,22.7-6.6
		c6.8,4.3,14.7,6.6,22.7,6.6c6.2,0,12.3-1.3,17.9-3.9l2.4-1.1L86.3,72.4z M27.3,40.4c-0.1-1.2-0.2-2.4-0.2-3.6
		c0-12.7,6.1-24.6,16.4-32c0.7,0.5,1.4,1,2.1,1.6l0.1,0.1l0,0C46,6.7,46.3,7,46.6,7.2c0.3,0.2,0.5,0.5,0.8,0.7l0.2,0.2
		c8,7.5,12.4,17.7,12.4,28.7c0,1.2-0.1,2.4-0.2,3.6l0,0.1l0.1,0.1c11,5.1,19.1,15.2,21.8,27.1l0,0.2c0,0,0,0,0,0.1l0.1,0.4
		c0.3,1.5,0.5,2.9,0.7,4.3c-5.1,2.3-10.6,3.5-16.2,3.5c-8.2,0-16-2.5-22.6-7.3l-0.1-0.1l-0.1,0.1c-6.6,4.8-14.5,7.3-22.6,7.3
		c-5.6,0-11.1-1.2-16.2-3.5c0.1-1.1,0.2-2.1,0.4-3.1c0.1-0.3,0.1-0.6,0.2-1c2.5-12.3,10.7-22.7,22-28l0.1-0.1L27.3,40.4z"/>
	<path class="st1" d="M47.4,65.6l-0.2,0.2l0.2,0.1c5.6,3.7,12.1,5.6,18.8,5.6c3.8,0,7.4-0.6,11-1.8l0.1,0l0-0.2
		c-2-10.3-8.8-19.3-18.2-24.1L59,45.3l0,0.2C57.2,53.2,53.2,60.2,47.4,65.6z M72.7,66.9c-2.1,0.5-4.3,0.7-6.5,0.7
		c-4.5,0-8.8-0.9-12.8-2.8c3.4-4,6.1-8.6,7.8-13.6C66.7,55.1,70.7,60.6,72.7,66.9z"/>
	<path class="st1" d="M54.7,43.4l-0.1,0c-3.5-1.2-7.2-1.8-11-1.8c-3.8,0-7.5,0.6-11,1.8l-0.1,0l0,0.2c1.5,7.4,5.4,14.2,11,19.2
		l0.1,0.1l0.1-0.1c5.6-5,9.5-11.8,11-19.2L54.7,43.4z M50,46.1c-1.3,4.2-3.6,8.1-6.5,11.3c-2.9-3.3-5.2-7.2-6.5-11.3
		C41.3,45.2,45.8,45.2,50,46.1z"/>
	<path class="st1" d="M9.6,69.7l0,0.2l0.1,0c3.4,1.1,7.1,1.6,11,1.6c6.7,0,13.2-2,18.8-5.6l0.2-0.1l-0.2-0.2
		c-5.8-5.4-9.8-12.4-11.5-20.1l0-0.2l-0.2,0.1C18.4,50.2,11.6,59.3,9.6,69.7z M25.7,51.2c1.8,5,4.4,9.6,7.8,13.6
		c-4,1.9-8.3,2.8-12.8,2.8c-2.3,0-4.5-0.2-6.5-0.6C16.3,60.7,20.3,55.1,25.7,51.2z"/>
</g>
</svg>
